<svg width="671" height="246" viewBox="0 0 671 246" fill="none" xmlns="http://www.w3.org/2000/svg">
<path d="M651.891 134.64C655.091 134.96 658.211 135.76 661.251 137.04C664.451 138.16 667.331 139.52 669.891 141.12C669.571 154.24 666.691 164.64 661.251 172.32C655.811 179.84 648.211 183.6 638.451 183.6C627.091 183.6 618.371 177.84 612.291 166.32C606.211 154.64 603.171 137.84 603.171 115.92C603.171 108.56 603.331 101.44 603.651 94.56C604.131 87.52 604.771 80.72 605.571 74.16C601.731 73.52 598.371 72.96 595.491 72.48C592.771 72 590.291 71.52 588.051 71.04C588.051 68.32 588.371 65.6 589.011 62.88C589.651 60 590.451 57.6 591.411 55.68C593.811 56.32 596.371 56.88 599.091 57.36C601.811 57.84 604.691 58.24 607.731 58.56C608.531 53.28 609.491 48 610.611 42.72C611.731 37.44 612.931 32.24 614.211 27.12C619.811 27.44 624.851 27.92 629.331 28.56C633.811 29.2 637.651 30.08 640.851 31.2C639.571 35.04 638.291 39.44 637.011 44.4C635.891 49.36 634.771 54.72 633.651 60.48C639.891 60.64 646.051 60.64 652.131 60.48C658.371 60.16 664.371 59.68 670.131 59.04C670.131 61.28 669.891 63.76 669.411 66.48C668.931 69.04 668.211 71.6 667.251 74.16C661.491 74.8 655.491 75.28 649.251 75.6C643.171 75.92 637.171 76 631.251 75.84C630.131 83.2 629.251 90.56 628.611 97.92C628.131 105.28 627.891 112.4 627.891 119.28C627.891 135.12 628.931 147.12 631.011 155.28C633.091 163.28 636.211 167.28 640.371 167.28C644.051 167.28 646.851 164.64 648.771 159.36C650.691 153.92 651.731 145.68 651.891 134.64Z" fill="#1F2933"/>
<path d="M511.689 108.72C515.689 110.16 520.009 111.28 524.649 112.08C529.289 112.72 533.929 113.04 538.569 113.04C540.009 113.04 541.769 112.96 543.849 112.8C545.929 112.48 547.449 112.24 548.409 112.08C549.529 107.76 550.329 103.76 550.809 100.08C551.449 96.24 551.769 92.72 551.769 89.52C551.769 83.28 550.729 78.88 548.649 76.32C546.729 73.6 543.609 72.24 539.289 72.24C533.529 72.24 528.169 75.6 523.209 82.32C518.249 89.04 514.409 97.84 511.689 108.72ZM559.449 143.76C562.809 144.4 566.249 145.68 569.769 147.6C573.289 149.36 576.249 151.52 578.649 154.08C575.769 163.04 569.369 171.12 559.449 178.32C549.689 185.36 539.129 188.88 527.769 188.88C513.849 188.88 502.969 183.92 495.129 174C487.289 164.08 483.369 150.64 483.369 133.68C483.369 113.84 489.049 96.08 500.409 80.4C511.929 64.56 525.529 56.64 541.209 56.64C551.609 56.64 559.849 59.76 565.929 66C572.009 72.24 575.049 80.56 575.049 90.96C575.049 96.4 574.489 102 573.369 107.76C572.409 113.52 571.049 118.64 569.289 123.12C565.609 124.56 561.129 125.68 555.849 126.48C550.729 127.12 544.489 127.44 537.129 127.44C532.649 127.44 528.009 127.12 523.209 126.48C518.409 125.68 513.689 124.56 509.049 123.12C508.889 126.32 508.729 128.56 508.569 129.84C508.569 131.12 508.569 132.32 508.569 133.44C508.569 145.28 510.569 154.8 514.569 162C518.569 169.2 523.929 172.8 530.649 172.8C536.089 172.8 541.689 169.92 547.449 164.16C553.209 158.24 557.209 151.44 559.449 143.76Z" fill="#1F2933"/>
<path d="M463.761 197.76C461.521 198.4 458.081 198.96 453.441 199.44C448.801 200.08 444.801 200.4 441.441 200.4C438.881 165.52 437.281 132.72 436.641 102C436.001 71.28 436.321 41.28 437.601 12C439.841 10.72 442.401 9.67999 445.281 8.87999C448.161 8.07999 450.961 7.67999 453.681 7.67999C455.921 7.67999 458.081 7.83999 460.161 8.16C462.241 8.31999 464.321 8.72 466.401 9.36C464.001 32.88 462.561 62.24 462.081 97.44C461.601 132.64 462.161 166.08 463.761 197.76Z" fill="#1F2933"/>
<path d="M343.637 122.4C343.637 136.32 345.637 147.36 349.637 155.52C353.797 163.52 359.157 167.52 365.717 167.52C369.877 167.52 373.557 165.44 376.757 161.28C380.117 157.12 382.917 150.96 385.157 142.8C384.997 130.8 384.197 119.36 382.757 108.48C381.477 97.44 379.637 87.44 377.237 78.48C376.117 78.16 374.837 77.92 373.397 77.76C371.957 77.6 370.357 77.52 368.597 77.52C360.277 77.52 354.037 81.28 349.877 88.8C345.717 96.16 343.637 107.36 343.637 122.4ZM410.597 145.2C410.597 177.52 405.957 202.24 396.677 219.36C387.557 236.48 374.677 245.04 358.037 245.04C346.677 245.04 337.477 241.6 330.437 234.72C323.557 227.84 319.317 218.48 317.717 206.64C320.597 204.56 323.957 202.72 327.797 201.12C331.637 199.52 335.637 198.24 339.797 197.28C341.557 208.32 343.957 216.24 346.997 221.04C350.197 226 354.517 228.48 359.957 228.48C366.837 228.48 372.357 223.44 376.517 213.36C380.837 203.28 383.557 188.48 384.677 168.96C381.477 174.24 377.877 178.24 373.877 180.96C369.877 183.52 365.237 184.8 359.957 184.8C346.997 184.8 336.677 179.44 328.997 168.72C321.477 158 317.717 143.52 317.717 125.28C317.717 104.8 322.357 88.88 331.637 77.52C341.077 66.16 354.197 60.48 370.997 60.48C375.957 60.48 381.237 61.04 386.837 62.16C392.437 63.28 397.557 64.8 402.197 66.72C404.597 76.64 406.597 89.04 408.197 103.92C409.797 118.8 410.597 132.56 410.597 145.2Z" fill="#1F2933"/>
<path d="M201.405 128.16C201.405 107.04 206.605 89.76 217.005 76.32C227.405 62.88 240.765 56.16 257.085 56.16C270.205 56.16 280.525 60.8 288.045 70.08C295.565 79.2 299.325 91.76 299.325 107.76C299.325 131.12 294.365 150.4 284.445 165.6C274.685 180.64 261.565 188.16 245.085 188.16C231.645 188.16 221.005 182.64 213.165 171.6C205.325 160.56 201.405 146.08 201.405 128.16ZM273.405 118.56C273.405 103.04 271.565 91.6 267.885 84.24C264.365 76.72 258.925 72.96 251.565 72.96C244.685 72.96 238.765 78 233.805 88.08C228.845 98 226.365 110.24 226.365 124.8C226.365 137.92 228.445 149.04 232.605 158.16C236.925 167.12 242.685 171.6 249.885 171.6C256.285 171.6 261.805 166.4 266.445 156C271.085 145.44 273.405 132.96 273.405 118.56Z" fill="#1F2933"/>
<path d="M138.593 126.72C139.073 135.52 139.873 144.88 140.993 154.8C142.113 164.56 143.553 175.04 145.313 186.24C143.073 187.04 140.673 187.6 138.113 187.92C135.713 188.24 133.233 188.32 130.673 188.16C129.073 188.16 127.633 188.08 126.353 187.92C125.073 187.76 123.713 187.44 122.273 186.96C118.273 166.8 115.473 145.36 113.873 122.64C112.433 99.76 112.353 77.76 113.633 56.64C115.553 56 117.713 55.52 120.113 55.2C122.513 54.88 125.153 54.72 128.033 54.72C130.113 54.72 132.273 54.88 134.513 55.2C136.753 55.52 139.153 56.08 141.713 56.88C141.073 61.2 140.433 65.68 139.793 70.32C139.313 74.8 138.913 79.68 138.593 84.96C142.273 73.6 147.153 64.56 153.233 57.84C159.313 51.12 165.553 47.76 171.953 47.76C178.993 47.76 184.273 50.48 187.793 55.92C191.473 61.2 193.313 69.12 193.313 79.68C193.313 81.44 193.233 83.36 193.073 85.44C192.913 87.52 192.753 89.6 192.593 91.68C190.193 92.64 187.153 93.28 183.473 93.6C179.953 93.92 175.713 94 170.753 93.84C171.073 91.6 171.313 89.52 171.473 87.6C171.633 85.68 171.713 83.76 171.713 81.84C171.713 77.04 171.073 73.44 169.793 71.04C168.673 68.48 166.913 67.2 164.513 67.2C159.393 67.2 154.433 72.64 149.633 83.52C144.993 94.24 141.313 108.64 138.593 126.72Z" fill="#1F2933"/>
<path d="M35.76 202.56C32.4 203.36 28.72 203.92 24.72 204.24C20.88 204.72 16.64 204.96 12 204.96C12.48 169.92 11.68 135.84 9.6 102.72C7.68 69.44 4.48 39.52 0 12.96C16.96 11.68 32.48 10.16 46.56 8.4C60.8 6.64 78.64 3.84 100.08 0C100.56 1.6 100.96 3.35999 101.28 5.28C101.6 7.2 101.84 9.12001 102 11.04C102.16 12.64 102.16 14.32 102 16.08C101.84 17.68 101.6 19.76 101.28 22.32C82.08 25.2 67.76 27.2 58.32 28.32C48.88 29.44 39.84 30.32 31.2 30.96C32.16 39.12 33.04 47.84 33.84 57.12C34.64 66.24 35.28 76 35.76 86.4C44.24 84.64 52.64 83.28 60.96 82.32C69.28 81.2 77.68 80.48 86.16 80.16C86.96 83.2 87.52 86.32 87.84 89.52C88.16 92.56 88.32 96.32 88.32 100.8C80.16 101.12 71.68 101.68 62.88 102.48C54.08 103.28 45.2 104.24 36.24 105.36C36.24 105.68 36.24 106 36.24 106.32C36.24 106.64 36.24 106.96 36.24 107.28C36.56 126.8 36.64 143.76 36.48 158.16C36.48 172.4 36.24 187.2 35.76 202.56Z" fill="#1F2933"/>
</svg>
